<svg xmlns="http://www.w3.org/2000/svg" width="60" height="60" fill-rule="evenodd"><path fill-opacity=".007" fill="#fff" d="M0 0h60v60H0z"/><path d="M52.302 18.802c-2.042 0-3.698 1.66-3.698 3.707v14.49c0 2.048 1.656 3.707 3.698 3.707S56 39.045 56 36.998V22.51c0-2.048-1.656-3.707-3.698-3.707zm-44.604 0C5.656 18.802 4 20.462 4 22.51v14.49c0 2.048 1.656 3.707 3.698 3.707s3.698-1.66 3.698-3.707V22.51c0-2.048-1.656-3.707-3.698-3.707zm5.923 26.583c0 1.572 1.29 2.847 2.884 2.847H19.8v8.06C19.8 58.34 21.455 60 23.498 60s3.698-1.66 3.698-3.708v-8.06h5.755v8.06C32.95 58.34 34.607 60 36.65 60s3.698-1.66 3.698-3.708v-8.06h3.294c1.593 0 2.884-1.275 2.884-2.847v-26.47H13.62v26.47zM37.8 5.197L40.84.842c.18-.26.135-.6-.1-.76s-.574-.08-.754.178l-3.158 4.524c-2.08-.81-4.392-1.26-6.827-1.26s-4.747.45-6.828 1.26L20.015.26c-.18-.26-.518-.338-.754-.178s-.28.5-.1.76l3.04 4.356c-4.832 2.22-8.22 6.436-8.653 11.358h32.904c-.43-4.922-3.82-9.138-8.653-11.358zm-14.74 6.865c-1.006 0-1.82-.804-1.82-1.797a1.81 1.81 0 0 1 1.821-1.797c1.005 0 1.82.805 1.82 1.797s-.815 1.797-1.82 1.797zm14.11 0c-1.005 0-1.82-.804-1.82-1.797s.815-1.797 1.82-1.797 1.82.805 1.82 1.797-.815 1.797-1.82 1.797z" fill="#00b589" fill-rule="nonzero" opacity=".7"/></svg>