<svg xmlns="http://www.w3.org/2000/svg" xmlns:xlink="http://www.w3.org/1999/xlink" width="297" height="262"><style><![CDATA[.B{fill:#f1b282}.C{fill:#0b224e}.D{fill-rule:nonzero}]]></style><defs><path d="M291.165 153.748c-5.25 9.86-14.755 17.555-17.393 28.4-1.137 4.682-.875 9.612-1.46 14.383-2.066 16.786-14.693 30.778-29.744 38.708-.634.343-1.274.687-1.908.975-9.885 4.806-20.582 7.43-31.493 9.07-6.633.982-13.343 1.607-19.976 2.135-27.695 2.18-55.43 2.973-83.203 2.382-13.418-.275-27.105-.906-39.725-5.348l-1.93-.687c-10.236-3.96-19.328-10.47-27.374-17.92l-.372-.343c-12-11.177-21.925-24.716-28.338-39.76a103.47 103.47 0 0 1-4.512-68.045C7.533 104.31 14.16 91.525 15.186 77.643c.77-10.436-1.695-21.01-.055-31.34C18.355 25.76 37.5 10.65 57.7 5.595s41.474-2.218 62.112.687C129.9 7.717 141.69 11.548 151.67 8.48 163.938 4.717 174.25.027 187.49 0c5.4 0 10.904.563 15.843 2.746 5.993 2.61 10.746 7.346 15.616 11.67 13.59 12.138 29.09 21.97 42.976 33.78s26.48 26.15 31.6 43.6c2.5 8.534 3.114 17.507 3.382 26.39.38 12.138-.014 24.826-5.73 35.55z" id="A"/><path d="M64.033 44H2.867C1.284 44 0 41.795 0 39.075V4.925C0 2.205 1.284 0 2.867 0h61.166C65.617 0 66.9 2.205 66.9 4.925v34.15c0 2.72-1.283 4.925-2.867 4.925z" id="B"/><path id="C" d="M185.845 73h-59.7c-.638 0-1.155-.503-1.155-1.125v-4.75c0-.62.517-1.125 1.155-1.125h59.7c.638 0 1.155.503 1.155 1.125v4.75c0 .62-.517 1.125-1.155 1.125z"/><path id="D" d="M229.458 86.505h-102.97c-.58 0-1.048-.475-1.048-1.062v-.004c0-.586.47-1.062 1.048-1.062h102.97c.58 0 1.048.475 1.048 1.062v.004c0 .586-.47 1.062-1.048 1.062z"/></defs><g fill="none" fill-rule="evenodd"><g class="D"><use fill="#f5f7fa" xlink:href="#A"/><path fill="#f3f9ff" d="M34.238 51.5h217.524V181.5H34.238z"/><path d="M252.707 44.29H33.293c-3.423 0-6.197 2.805-6.197 6.265v131.892c0 3.46 2.774 6.265 6.197 6.265h219.415c3.423 0 6.197-2.805 6.197-6.265V50.554c-.001-3.46-2.775-6.265-6.198-6.265zm-.945 137.2H34.238V51.5h217.524V181.5z" fill="#e2e8f0"/><path d="M238.122 171H117.878a2.88 2.88 0 0 1-2.878-2.877V61.877A2.88 2.88 0 0 1 117.878 59h120.244A2.88 2.88 0 0 1 241 61.877v106.246a2.88 2.88 0 0 1-2.878 2.877z" fill="#fff"/></g><g transform="translate(42 59)"><mask id="E" fill="#fff"><use xlink:href="#B"/></mask><use fill="#7ae7c3" xlink:href="#B" class="D"/><path fill="#53d4a9" mask="url(#E)" d="M31.55 29l12 16h-24z"/><path fill="#37c495" mask="url(#E)" d="M53.55 22l17 23h-34z"/></g><circle fill="#53d4a9" cx="51.5" cy="68.5" r="4.5"/><g class="D"><use xlink:href="#C" fill="#b1e976"/><path d="M204.5 110H127.5c-.823 0-1.5-.503-1.5-1.125v-4.75c0-.62.667-1.125 1.5-1.125h77.02c.823 0 1.5.503 1.5 1.125v4.75c0 .62-.667 1.125-1.5 1.125z" fill="#ffe9ad"/><use xlink:href="#C" x="1" y="77" fill="#1b90fb" opacity=".664"/><g fill="#dceefd"><path d="M229.458 80.308h-102.97c-.58 0-1.048-.475-1.048-1.062v-.004c0-.586.47-1.062 1.048-1.062h102.97c.58 0 1.048.475 1.048 1.062v.004c0 .587-.47 1.062-1.048 1.062z"/><use xlink:href="#D"/><use xlink:href="#D" y="6.197"/><path d="M165.44 98.9h-38.953c-.58 0-1.048-.475-1.048-1.062v-.004c0-.586.47-1.062 1.048-1.062h38.953c.58 0 1.048.475 1.048 1.062v.004c0 .587-.47 1.062-1.048 1.062zm53.06 18.375h-92.124c-.518 0-.938-.47-.938-1.046v-.004c0-.578.42-1.047.938-1.047H218.5c.518 0 .938.47.938 1.047v.004c0 .578-.42 1.046-.938 1.046zm-19.8 6.11h-72.523c-.408 0-.738-.47-.738-1.046v-.004c0-.578.33-1.047.738-1.047H198.7c.408 0 .738.47.738 1.047v.004c0 .578-.33 1.046-.738 1.046zm17.82 6.108h-90.164c-.507 0-.918-.47-.918-1.047v-.004c0-.578.4-1.047.918-1.047h90.164c.507 0 .918.47.918 1.047v.004c0 .578-.4 1.047-.918 1.047zm-23.2 6.605H125.7c-.38 0-.7-.47-.7-1.047v-.004c0-.578.308-1.047.7-1.047h67.623c.38 0 .7.47.7 1.047v.004c0 .578-.308 1.047-.7 1.047z"/></g><g fill="#b4bcc6"><path d="M223 106h27v2h-27zm0 18h27v2h-27zm0 22h27v2h-27zm3 20h23v2h-23zm-3 63h27v2h-27zm0 21h27v2h-27zm0-64h27v2h-27z"/><path d="M249 98h2v164h-2zm-27 0h2v164h-2z"/><path d="M223 209h27v2h-27z"/></g><path d="M234 203.508l.98 2.873s2 1.816 3.02-.773l-.437-2.383c-.117-.638-3.563.283-3.563.283z" class="B"/><path d="M238 203h-5.455l-6.526-25.276c-1.12-4.17-2.42-17.95-1.903-24.367.492-6.12 10.936-2.805 11.48 1.493 1.597 12.598-1.375 21.942-1.223 24.145C236.965 185.528 238 203 238 203z" fill="#102b5e"/><path d="M223.338 113.997c-.675 1.408-.344 2.174-.5 2.767s-.8 1.79-.827 2.36.595.645.73 1.388-.218 1.71.25 2.487 2.278.598 2.17 1.35-1.248 3.538-1.248 3.538l7.447.116s-.297-4.056.08-5.732 1.218-7.836-.328-8.583-7.047-1.182-7.764.312z" class="B"/><path d="M226.857 111.9c6.078.188 8.2 1.708 8.14 6.42-.04 2.808-1.603 6.695-3.654 6.682-1.48-.01-4.394-.172-4.905-.974-1.213-1.903-.174-4.53-.987-5.436-1.155-1.29-3.78-.625-3.42-5.064s2.8-1.7 4.824-1.627z" class="C"/><path d="M241.065 110.058s1.1-2.756.912-4.23c-.32-2.374-6.657-2.385-6.93-.33-.3 2.183.852 2.754 1.598 3.324s1.598 1.567 1.8 1.947 2.3.38 2.6-.713zm-42.3 15.862s-3.1-.88-4.26-1.885c-1.884-1.62 1.967-5.907 3.934-4.876 2.088 1.095 1.893 2.204 1.937 3.044s.4 2.006.602 2.375-1.062 1.77-2.214 1.342zM219 197.997l1.672 2.62s2.634 1.433 3.328-1.238l-.956-2.234c-.256-.598-4.044.853-4.044.853z" class="B"/><path d="M219.416 154.532s-10.155 14.815-10.402 17.79c-.446 5.367 9.49 26.68 9.49 26.68l5.14-1.137s-3.442-16.065-6.162-21.542c5.23-7.29 13.517-11.36 13.517-20.88.001-2.58-11.584-.9-11.584-.9z" class="C"/><path d="M229.85 127.082c-1.535-.105-4.393.054-6.058.022-4.262-.08-10.02 3.745-14.636 5.112-3.016-3.296-7.438-8.526-7.438-8.526l-3.72 2.32s6.64 11.562 10.72 12.225c2.47.4 6.44.247 9.522-1.042 0 3.872-4.913 19.047-1.303 19.82s9.298-.552 12.8 0 7.33 3.203 6.454-3.424-4.704-5.915 3.5-18.558c2.15-3.31 4.65-8.135 4.27-12.18-.74-7.906-2.644-13.85-2.644-13.85l-4.07.663s.352 8.324 1.226 13.184c-.875 2.34-2.196 3.948-3.703 5.612-.826.912-2.516-1.464-4.92-1.376z" fill="#c9d5e3"/><path d="M237.156 205.4c.42-.053.86.38.844 1.98s.06 2.448-1.236 2.62c-.814.108-3.882-.67-6.87-.62-1.08.018-3.064-.467-3.76-1.356a.67.67 0 0 1-.08-.665c.094-.222.294-.362.5-.356 2.407.064 2.45.3 4.398-1.037.707-.482 1.298-.932 1.67-.956.726-.048 1.062.88 2.244.758s1.556-.278 2.28-.37zm-13.638-5.382c.44-.084 1.012.483 1.232 1.984s.666 2.7-.692 2.968c-.853.168-5.293-.27-8.476.025-1.15.107-2.498-.434-3.373-1.2-.18-.158-.252-.4-.185-.616s.26-.363.5-.376c2.58-.14 2.66.068 4.542-1.335.683-.5 1.247-.98 1.642-1.033.768-.104 1.23.536 2.475.325s1.584-.588 2.344-.733z" class="C"/><path d="M99.194 160.034c2.002-.257 3.786.983 3.786 2.5 0 .33-.133.926.126 1.68.173.505.9 1.156.893 1.844s-1.062.533-.978 1.148.505 1.885.2 2.376-3.576-.082-3.66 1.065.757 3.354.757 3.354l-7.067-.526s-.6-10.625 0-11.432c.99-1.352 4.333-1.803 5.932-2.007z" class="B"/></g><path d="M86.566 254s-1.268 5.204-.01 6.248l2.78.243c.253.022.477-.157.5-.4l.04-.416s1.164 1.092 2.08 1.172 5.8.116 5.8.116 1.128.3 1.228-.76c.143-1.505-3.858-1.7-5.386-3.07s-2.238-2.712-2.238-2.712l-4.806-.42zm13.648 1s-.758 5.833.575 6.857h2.75c.25 0 .454-.218.454-.487v-.46s1.245 1.086 2.153 1.086l6.718-.01s1.135.2 1.135-.952c0-1.665-4.95-1.916-6.577-3.272s-2.45-2.76-2.45-2.76h-4.757z" class="C"/><g class="D"><path d="M125 191.444c0 .41-.164.8-.453 1.08C114.72 202.074 98 202 98 202v-21.743s15.1 1.43 26.187-9.124c.14-.135.346-.17.523-.09s.29.258.29.455v19.947z" fill="#e4eaf2"/><path d="M120 182.714l1.883-2.16c.314-.37.57-2.53 1.132-3.087s2.338-1.517 2.807-1.465c.663.074 1.37 2.87 1.13 4.875-.222 1.844-1.263 2.47-2.825 2.716-.813.13-2.354 1.914-2.48 2.407L120 182.714z" class="B"/><path d="M99.983 177s.218-3.35-.915-3.716-6.512-2.012-7.236-.908-.832 4-.832 4l8.983.624z" fill="#bbc7d6"/><path d="M104.997 160.352c-.092-3.224-13.685-3.947-13.98 3.12-.17 4.08.914 7.455 1.866 7.443 2.5-.032.97-4.34 2.416-4.53 1.608-.212-.014 7.022 4.067 6.597 6.845-.714 5.058-5.76.818-4.954s-3.177-3.858.356-4.73 4.52-.595 4.455-2.945zm-16.67 46.945s-.3 10.676 1.186 21.497l-3.505 25.084a.72.72 0 0 0 .165.564c.133.158.33.252.538.263l5.95.294c.348.017.66-.202.757-.528.94-3.208 5.6-19.367 5.944-24.826.374-6.073 1.745-22.226-1.247-23.926s-9.404-3.4-9.787 1.58z" class="C"/><path d="M92.013 206.74c.824 6.445 6.524 24.623 7.878 27.072l.83 21.8a.98.98 0 0 0 .895.939l4.896.443a.99.99 0 0 0 .732-.233.98.98 0 0 0 .341-.685L109 232.21s-1.6-24.12-4.555-26.57-12.855-2.206-12.432 1.103z" fill="#102b5e"/><g fill="#bbc7d6"><path d="M90.677 190.3c1.728-1.29 3.725-2.985 4.39-4.36 1.256-2.6.53-13.686-4.097-10.308s-8.154 13.554-7.964 16.994S98.676 203 98.676 203l1.324-5.598c0-.001-6.27-4.83-9.323-7.1z"/><path d="M123.9 185.46l-2.596-3.36c-.164-.212-.47-.257-.7-.103-1.258.882-5.225 3.72-7.935 6.253-2.266-3.94-8.063-13.43-11.438-13.645-1.85-.552-7.758-1.35-10.135.86s-1.502 7.606-1.877 15.948-4.004 16.07-1.126 17.297 5.756-1.84 9.635-1.717 8.643 2.33 9.014-.736c.334-2.762-2.666-9.598-2.354-15.053 2.8 2.973 6.238 6.066 7.98 5.607 2.92-.77 10.07-9.05 11.508-10.74.148-.175.154-.428.014-.6z"/></g><path d="M105 198c-2.428-1.794-7.038-6.298-5.79-14l1.276 1.865 3.763 5.53.006.01c-.13 2.094.244 4.39.744 6.593z" fill="#97a8bc"/></g></g></svg>