<svg xmlns="http://www.w3.org/2000/svg" xmlns:xlink="http://www.w3.org/1999/xlink" width="287" height="255"><style><![CDATA[.B{opacity:.532}.C{fill:#fff}.D{fill-rule:nonzero}]]></style><defs><path d="M14.064 206.535c-4.93-6.66-9.2-14.156-11.398-22.502-4.93-18.7.956-38.776 8.234-56.47 6.983-16.95 19.234-39.016 19.487-58.182.048-3.46-.74-6.857-1.214-10.28-1.97-15.098 1.5-32.396 10.69-43.446C47.122 7.228 56.764 2.042 67.06 1.03c32.265-3.367 67.14 11.83 87.513 14.92 23.467 3.564 47.476-4.924 70.85-.615 20.803 3.822 40.96-7.312 51.8 13.393s12.722 74.94 4.638 97.24c-2.986 8.24-7.262 15.904-9.287 24.52-2.224 9.48-1.574 19.542-.097 29.21 1.176 7.718 2.874 15.523 1.966 23.3-1.074 9.232-5.785 17.468-11.548 24.035-15.952 18.182-39.8 24.866-62.258 23.302s-43.985-10.463-64.99-19.653c-5.05-2.216-10.125-4.468-15.458-5.496-6.096-1.17-12.354-.696-18.493-.092-17.252 1.668-35.294 7.73-52.444 8.057-13.444.26-27.055-15.615-35.187-26.608z" id="A"/><path id="B" d="M0 0h48v22H0z"/><rect id="C" width="50" height="44" rx="6"/></defs><g transform="translate(-4 -6)" fill="none" fill-rule="evenodd"><path fill-opacity="0" d="M0 0h297v262H0z" class="C"/><g transform="translate(3.682 5.939)"><g class="D"><use fill="#bbc8dd" opacity=".15" xlink:href="#A"/><path d="M145.275 127.06h-.957V106h30.043V83.06h.957v23.924h-30.043zm9.043 16v-4.427h80.032V114.06h.968v25.528h-80.025v3.472zm-19.974 1v-3.402H72.318V117.06h.973v22.67h62.027v4.33z" fill="#bec9df"/></g><g transform="translate(116.318 117.061)"><g class="D"><path d="M7.23 0h47.387c1.955-.007 3.832.762 5.217 2.138S61.998 5.384 62 7.334V75.34A6.67 6.67 0 0 1 55.325 82H7.006A7 7 0 0 1 0 75.03V7.213c0-1.913.762-3.748 2.117-5.1S5.312 0 7.23 0z" fill="#e2e8f0"/><path d="M3 7h56v65H3z" class="C"/><path d="M7 10h48v3H7zm0 5h37v5H7zm0 41h37v5H7zm0-33h48v5H7zm0 41h48v5H7z" fill="#f5f7fa"/></g><g transform="translate(7 31)"><mask id="D" class="C"><use xlink:href="#B"/></mask><use fill="#f5f7fa" xlink:href="#B" class="D"/><g mask="url(#D)"><path fill="#d0f0fe" d="M28 7l9 15H19z"/><path fill="#baeafe" d="M42 2l11 20H31z"/><circle fill="#74cef2" cx="10.5" cy="5.5" r="2.5"/></g></g></g><g class="D"><path d="M112.506 218.93c3.894-2.796 6.837-6.74 8.425-11.3 2.74-7.882 1.252-17.1 5.438-24.294 1.005-1.73 2.337-3.326 2.813-5.273s-.295-4.434-2.223-4.928-3.75 1.25-5.05 2.84l-6.65 8.112c-.08-.676-.08-7.16 0-9.315-6.838.338-12.852 5.935-14.546 12.634a31.51 31.51 0 0 0-.75 7.571 135.8 135.8 0 0 0 .234 7.916 30.16 30.16 0 0 1 0 5.1c-.556 4.793-3.563 8.923-4.83 13.573-.067.2-.067.398 0 .588.096.165.24.296.415.372 1.962 1.055 4.253 1.257 6.476 1.352s4.62.176 6.938.155a2.7 2.7 0 0 0 1.293-.223c.804-.433.984-1.5 1.072-2.42m64.812-9.54c-4.445-8.557-2.027-19.506-6.38-28.1-1.1-2.188-2.658-4.323-2.658-6.775-.086-.6.143-1.18.6-1.552a1.61 1.61 0 0 1 1.619-.244c3.66.596 5.655 4.743 8.964 6.45l-.246-6.4c3.875.52 7.493 2.264 10.346 4.987 1.305 1.2 2.35 2.647 3.07 4.275.657 1.76 1 3.62 1.043 5.5.246 4.478-.113 8.984.193 13.455s1.33 9.065 4.06 12.602c1.468 1.917 3.502 3.814 3.322 6.233.004.186-.055.368-.166.515-.187.153-.426.224-.664.196a217.58 217.58 0 0 1-7.834-.06c-2.166-.06-6.24.542-8.2-.38-1.402-.678-2.24-3.388-3.203-4.797a61.61 61.61 0 0 1-3.867-5.888z" fill="#ffccba"/><path d="M108.356 238.792l-.32 1.27c-9.95-1.162-17.783-2.437-21.72-3.132.076-1.342.4-2.66.957-3.887a84.47 84.47 0 0 1 5.185-10.424c.435-.933 1.145-1.717 2.036-2.25a5.52 5.52 0 0 1 2.925-.194c3.93.46 13.82.314 15.65 4.808 1.44 3.452-3.903 10.084-4.717 13.8zm103.38 7.4c-6.955 3.93-13.756 7.03-20.087 8.87-.253-.293-.43-.643-.516-1.02-1.426-4.522-9.853-24.048-11.28-28.578-.476-1.53-.92-3.354 0-4.636s2.95-1.462 4.634-1.422c4.232 0 11.187-1.006 15.15.423 3.595 1.3 11.07 20.293 12.365 23.72a3.05 3.05 0 0 1 .31 1.523 2.43 2.43 0 0 1-.577 1.12z" fill="#5c95f8"/><rect fill="#dccbff" x="214.318" y="57.061" width="50" height="57" rx="4"/></g><g fill="#bda2f4"><rect x="220.318" y="62.061" width="33" height="2" rx="1" class="B"/><rect x="220.318" y="96.061" width="23" height="2" rx="1" class="B"/><rect x="220.318" y="66.061" width="23" height="2" rx="1" class="B"/><rect x="220.318" y="100.061" width="39" height="2" rx="1" class="B"/><rect x="220.318" y="70.061" width="30" height="2" rx="1" class="B"/><rect x="220.318" y="104.061" width="30" height="2" rx="1" class="B"/><rect x="220.318" y="75.061" width="19" height="18" rx="1" class="B"/><rect x="242.318" y="75.061" width="6" height="18" rx="1" class="B"/><rect x="251.318" y="75.061" width="7" height="18" rx="1" class="B"/></g><rect fill="#7ae7c3" x="47.318" y="47.061" width="50" height="70" rx="6" class="D"/><g class="C"><rect x="55.318" y="69.061" width="29" height="2" rx="1"/><rect x="55.318" y="87.061" width="29" height="2" rx="1"/><rect x="55.318" y="107.061" width="29" height="2" rx="1"/><rect x="55.318" y="81.061" width="22" height="2" rx="1"/><rect x="55.318" y="101.061" width="22" height="2" rx="1"/><rect x="55.318" y="75.061" width="38" height="2" rx="1"/><rect x="55.318" y="94.061" width="38" height="2" rx="1"/><text font-family="PingFangSC-Medium, PingFang SC" font-size="12"><tspan x="54.318" y="63.061">Text</tspan></text></g><g transform="translate(150.318 53.061)"><mask id="E" class="C"><use xlink:href="#C"/></mask><use fill="#fddce5" xlink:href="#C" class="D"/><g fill="#eeaebf"><path opacity=".764" mask="url(#E)" d="M42 17l19 28H23z"/><path opacity=".402" d="M20.5 23L36 44H5z"/><circle cx="10.5" cy="10.5" r="4.5"/></g></g></g></g></svg>