<svg xmlns="http://www.w3.org/2000/svg" width="60" height="60" fill-rule="evenodd"><path fill-opacity=".006" fill="#fff" d="M0 0h60v60H0z"/><path d="M55.94 50.97c-.323-.98-3.13-2.206-4.014-4.173s-.16-3.018-1.522-4a1.58 1.58 0 0 0-.604-.264c.477-1.286.49-3.043.428-5.357-.16-6.05-2.758-9.677-4.155-11.45-1.67-2.12-2.25-2.92-3.53-4.98-1.242-1.985-2.56-4.428-2.604-7.056-.056-3.107-.16-6.678-1.607-9.37S33.294-1.03 28.213.4c-5.432 1.528-5.565 6.178-5.804 9.613s1.298 5.877.007 10.22-3.538 5.956-4.618 8.135c-2.674 5.392-3.24 5.87-4.415 8.648-1.298 3.064-.323 4.878-.323 4.878l.056.15c-.463.87-.71 1.742-1.257 1.978-1.095.47-3.692-.242-4.576.657s.428 6.35-.16 7.355S6 53.012 6 54.648s1.768 1.474 8.674 3.842 8.2 1.714 9.797-.328c.254-.322.436-.697.533-1.098 2.112-.193 4.246-.364 5.49-.372 2.76-.014 6.618.872 8.415 1.32.26.707.638 1.28 1.143 1.543 1.446.735 4.822.657 6.83-1.308s7.067-4.494 7.712-5.15 1.663-1.15 1.347-2.13zM27.03 13.26c-.077-.928-.575-1.635-1.116-1.593s-.92.837-.843 1.757c.042.514.218.964.456 1.25l-.238.22c-.397-.522-.724-1.357-.808-2.378-.147-1.765.53-3.15 1.228-3.207h.05c.68 0 1.544 1.21 1.684 2.957a6.43 6.43 0 0 1-.007 1.05c-.132.057-.265.12-.393.186-.007-.07-.007-.157-.014-.243zm-1.124 1.148l-.017.017.017-.017zm-.17.158l-.017.016c0-.016 0-.016.017-.016zm-.716.6c.047-.046.087-.09.134-.137a1.01 1.01 0 0 1-.134.137zm.14-.13c.045-.043.1-.094.134-.137-.045.05-.1.093-.134.137zm1.15 1.66c.175-.15.344-.308.505-.457.75-.7 1.257-1.13 1.93-1.157.077-.007.154-.007.232-.007 1.143 0 2.302.415 3.874 1.4l.4.243a32.6 32.6 0 0 1-1.257 1.092c-1.116.92-1.944 1.493-2.372 1.736-.316-.143-.892-.464-1.748-1.064-.933-.657-1.65-1.27-1.83-1.457a1.47 1.47 0 0 1 .265-.328h.002zm6.737-2.467c.042.044.092.088.134.137l-.134-.137zm.12-2.714c-.673-.036-1.312.7-1.425 1.643-.02.144-.022.29-.007.435-.26-.107-.52-.193-.772-.27-.03-.323-.025-.65.014-.97.1-.857.43-1.658.913-2.236.435-.514.94-.8 1.425-.8h.07c.365.02.695.202.97.538.498.6.723 1.578.603 2.613-.098.857-.428 1.657-.912 2.235-.02.022-.042.05-.066.072l-.066-.043c-.1-.067-.198-.12-.295-.178.295-.3.505-.75.57-1.265.098-.942-.35-1.735-1.025-1.77l.006-.005zm.286 3.008c-.045-.04-.09-.095-.134-.137a.6.6 0 0 1 .134.137zM32.52 14c-.042-.034-.097-.067-.134-.1.04.033.083.066.134.1zm-.26-.133c-.05-.034-.086-.05-.134-.083.044.03.088.06.134.083zm-1.694-.607c.017 0 .034.017.066.017-.02-.012-.043-.018-.066-.017zm3.595 1.653c-.063-.043-.126-.094-.19-.137.066.05.126.094.19.137zm.493.326c-.04-.045-.087-.088-.134-.137.047.044.087.086.134.137zm-.148-.097c-.05-.042-.105-.1-.16-.137.056.042.112.095.16.137zm-.17-.112c-.056-.046-.112-.092-.175-.137.066.045.12.09.175.137zm2.295 36.322c-1.263 1.17-2.23 1.657-2.94 2.113-1.326.857-3.467 1.38-5.692 1.036-1.41-.214-2.674-.814-3.782-1.492a8.17 8.17 0 0 0-.727-1.211c-.49-.665-3.832-5.47-5.923-8.47a9.3 9.3 0 0 1-.161-1.786c.042-3.513 1.003-7.62 1.8-8.584.24-.293 1.993-5.378 2.407-6.456.765-1.964 1.944-4.27 2.56-5.62.42-1.115.484-1.893.428-2.423.695.736 3.952 3.236 5.116 3.236h.02c.968-.022 4.68-3.1 5.952-4.514.12.514.744 1.536 1.144 2.52 1.165 2.87 2.52 8.242 4.688 11.22.147.207.512.907.583 1.178.842 3.078.673 5.406.154 9.977a3.47 3.47 0 0 0-.849-.172c-1.48-.12-2.007.493-2.007.493l-.245 6.52a23.17 23.17 0 0 1-.394.429c-.758.77-1.46 1.436-2.12 2.007l-.004-.001z" fill="#05cdff" fill-rule="nonzero"/></svg>