<svg xmlns="http://www.w3.org/2000/svg" xmlns:xlink="http://www.w3.org/1999/xlink" width="297" height="258"><style><![CDATA[.B{mask:url(#B)}.C{fill:#fff}.D{fill-rule:nonzero}.E{stroke-linecap:round}]]></style><defs><path d="M291.165 158.668c-5.25 10.174-14.755 18.117-17.393 29.32-1.137 4.832-.875 9.92-1.46 14.844-2.066 17.324-14.693 31.763-29.744 39.947-.634.354-1.274.71-1.908 1.006-9.885 4.96-20.582 7.666-31.493 9.36-6.633 1.013-13.343 1.658-19.976 2.204-27.695 2.248-55.43 3.068-83.203 2.46-13.418-.283-27.105-.935-39.725-5.52-.647-.227-1.288-.475-1.93-.71-10.236-4.088-19.328-10.805-27.374-18.493l-.372-.354c-12-11.535-21.925-25.507-28.338-41.03-9.15-22.217-10.74-46.96-4.512-70.222 3.795-13.83 10.422-27.023 11.448-41.35.77-10.77-1.695-21.68-.055-32.344 3.224-21.2 22.36-36.794 42.57-42.01s41.474-2.29 62.112.71c10.078 1.48 21.877 5.434 31.858 2.267C163.938 4.868 174.25.028 187.49 0c5.4 0 10.904.58 15.843 2.834 5.993 2.692 10.746 7.58 15.616 12.045 13.59 12.527 29.09 22.673 42.976 34.86s26.48 26.988 31.6 45.006c2.5 8.807 3.114 18.067 3.382 27.236.38 12.527-.014 25.62-5.73 36.688z" id="A"/></defs><g transform="translate(0 -2)" fill="none" fill-rule="evenodd"><path fill-opacity="0" d="M0 0h297v262H0z" class="C"/><g transform="translate(0 2)"><mask id="B" class="C"><use xlink:href="#A"/></mask><use fill="#f5f7fa" xlink:href="#A" class="D"/><g stroke="#bec9df" stroke-width="2" class="E B"><path d="M191 103v43l34 4"/><path transform="matrix(-1 0 0 1 186 0)" d="M76 103v43l34 4"/></g><g class="D B"><path fill="#68e1fd" d="M87.05 191.762L44.34 204 27 142.38l.95-1.438L59.713 133l6.945 2.32 5.25 2.627L88 190.324z"/><path d="M89 188.762L46.326 201 29 139.38 61.686 130l6.94 2.31 5.244 2.636z" class="C"/><path d="M61 130l7.694 9L74 134.565s-7.048-3.363-13-4.565zm-22 20.957L68.404 143l.596 1.913L39.63 153zm2 6L70.404 149l.596 1.913L41.63 159zm2 8.006L72.395 157l.605 1.906L43.622 167zm1 6L73.404 163l.596 1.906L44.63 173z" fill="#68e1fd"/><g transform="matrix(.951057 .309017 -.309017 .951057 220.85299 111.849416)"><path fill="#0091ff" d="M64.554 60.94l-42.7 12.238-17.34-61.62.95-1.438 31.763-7.942 6.945 2.32 5.25 2.627 16.094 52.377z"/><path d="M60 58.762L17.326 71 0 9.38 32.686 0l6.94 2.31 5.244 2.636z" class="C"/><path d="M32 0l7.694 9L45 4.565S37.952 1.203 32 0zM10 20.957L39.404 13 40 14.913 10.63 23zm2 6L41.404 19 42 20.913 12.63 29zm2 8.006L43.395 27 44 28.906 14.622 37zm1 6L44.404 33 45 34.906 15.63 43z" fill="#2293ff"/></g></g><g stroke="#bec9df" stroke-width="2" class="B"><g class="C"><circle cx="191" cy="143" r="5"/><circle cx="110" cy="144" r="5"/></g><path d="M148.5 103v96" class="E"/></g><g class="B D"><path fill="#7ae7c3" d="M124.07 189l50.93 7.96-8.763 46.04L115 233.994z"/><path d="M128.072 194L123 221.966l23.107-10.342 7.604 10.625-5.35 4.75 11.93-7.647 5.35 6.898L171 201.272z" class="C"/></g><g class="B"><path d="M247 84.75a32.47 32.47 0 0 1-10.094 23.509 35.09 35.09 0 0 1-24.393 9.74H83.55C64.46 118 49 103.16 49 84.77a32.54 32.54 0 0 1 10.094-23.518 34.9 34.9 0 0 1 22.761-9.669c1.185-6.53 4.415-12.517 9.225-17.098a33.74 33.74 0 0 1 23.462-9.386h4.435a34.09 34.09 0 0 1 21.129 7.305C145.87 18.12 160.267 8 177.21 8c22.06 0 39.916 17.204 39.916 38.464a27.48 27.48 0 0 1-.47 5.313C233.757 53.77 247 67.768 247 84.75z" fill="#e2e8f0" class="D"/><text font-family="PingFangSC-Medium, PingFang SC" font-size="42" letter-spacing="-1.013"><tspan x="112" y="104" class="C">1GB</tspan></text><text font-family="PingFangSC-Regular, PingFang SC" font-size="23" letter-spacing="-.076"><tspan x="121" y="63" class="C">FREE</tspan></text></g></g></g></svg>