<svg xmlns="http://www.w3.org/2000/svg" width="60" height="60"><path d="M30.198.21C13.872.21.638 13.588.638 30.09s13.234 29.878 29.56 29.878S59.758 46.6 59.758 30.09 46.523.21 30.198.21zm-16.08 32.97v-4.415c0-.377.3-.682.673-.682h7.523l-3.27 5.78H14.79c-.372 0-.673-.306-.673-.682zm5.355 9.33l-2.5 1.73c-.338.233-.576.085-.53-.327l.335-2.958c.047-.41.375-.58.73-.374l1.936 1.127c.355.207.37.57.03.8zm1.62-1.942c-.205.358-.663.484-1.017.277l-1.936-1.13c-.355-.206-.48-.667-.274-1.027l8.97-15.85a.74.74 0 0 1 1.015-.277l1.937 1.125c.354.21.477.67.274 1.03l-8.967 15.85zm5.343-6.705l3.27-5.778h2.96c1.146 2.643 2 4.488 2.644 5.778h-8.875zM38.02 35.8c-.774-.395-4.637-9.437-5.626-11.796s-3.98-8.64-3.014-9.127c.7-.352 3.16 4.594 5 7.563 1.058 1.694 2.77 4.914 4.135 7.53l.054.102.182.352.05.096.16.306.088.172.103.197.138.266.022.044 1.262 2.43c.473.876-.454 1.602-.97 1.82s-.817.435-1.592.043zm2.538 4.158l-1.166-1.87c-.24-.387-.117-.87.274-1.075l1.112-.58c.39-.203.882-.037 1.09.37l.922 1.796c.208.406.068.927-.312 1.158l-.794.484c-.377.23-.886.104-1.127-.28zm4.742 5.36c-.245-.792-2.107-.844-2.94-2.037s-.145-1.804.145-2.086c3.38-1.933 2.794 4.124 2.794 4.124zm.968-12.138c0 .376-.3.682-.673.682h-3.6c-.05-.2-.12-.395-.223-.584-.098-.178-.372-.7-.72-1.383l-1.984-3.812h6.536a.68.68 0 0 1 .674.682v4.415z" fill="#8ad14f" fill-rule="nonzero" opacity=".7"/></svg>