<svg xmlns="http://www.w3.org/2000/svg" width="60" height="60"><defs><linearGradient x1="-13.5736522%" y1="-51.2867647%" x2="116.973498%" y2="141.015625%" id="A"><stop stop-color="#c2cce2" offset="0%"/><stop stop-color="#a9b8d2" offset="100%"/></linearGradient></defs><g fill-rule="evenodd"><path fill-opacity="0" fill="#fff" d="M0 0h60v60H0z"/><path d="M54.262 43.287c-1.398 3.072-2.073 4.445-3.87 7.155-2.518 3.788-6.07 8.517-10.457 8.547-3.905.035-4.913-2.52-10.217-2.474-5.3.025-6.404 2.525-10.315 2.485-4.392-.04-7.75-4.3-10.27-8.082C2.093 40.31 1.348 27.876 5.7 21.263c3.08-4.7 7.95-7.446 12.523-7.446 4.66 0 7.588 2.53 11.44 2.53 3.738 0 6.014-2.535 11.403-2.535 4.073 0 8.38 2.195 11.46 5.983-10.07 5.46-8.436 19.685 1.737 23.49zM36.972 9.58c1.96-2.5 3.45-6 2.908-9.58-3.196.216-6.936 2.235-9.12 4.85-1.98 2.385-3.622 5.922-2.984 9.344 3.49.1 7.103-1.95 9.196-4.615z" fill-opacity=".9" fill="url(#A)" fill-rule="nonzero"/></g></svg>